HIERARCHY
ROOT Hip
{
	OFFSET 0 1.131 0.0052
	CHANNELS 6 Xposition Yposition Zposition Xrotation Yrotation Zrotation
	JOINT Abdomen
	{
		OFFSET 0 -0.047353 -0.05
		CHANNELS 3 Xrotation Zrotation Yrotation
		JOINT Chest
		{
			OFFSET 0 0.132153 0.007439
			CHANNELS 3 Xrotation Zrotation Yrotation
			JOINT Neck
			{
				OFFSET 0 0.3078 0.006161
				CHANNELS 3 Xrotation Zrotation Yrotation
				JOINT Head_comp
				{
					OFFSET 0 0.0884 0.013
					CHANNELS 3 Xrotation Yrotation Zrotation
					End Site
					{
						OFFSET -0 0.156 0.0624
					}
				}
			}
			JOINT Left_Collar
			{
				OFFSET 0.02282 0.250342 0.017193
				CHANNELS 2 Yrotation Zrotation
				JOINT Left_Shoulder
				{
					OFFSET 0.15421 0 0
					CHANNELS 3 Xrotation Yrotation Zrotation
					JOINT Left_Forearm
					{
						OFFSET 0.265212 0 0
						CHANNELS 2 Yrotation Xrotation
						JOINT Left_Hand
						{
							OFFSET 0.27571 0 0
							CHANNELS 2 Zrotation Yrotation
							JOINT L1ProxPhalanx
							{
								OFFSET 0.014142 0.001733 0.014142
								CHANNELS 3 Yrotation Zrotation Xrotation
								JOINT L1MidPhalanx
								{
									OFFSET 0.04 0 0
									CHANNELS 1 Zrotation
									JOINT L1DistPhalanx
									{
										OFFSET 0.035 0 0
										CHANNELS 1 Zrotation
										End Site
										{
											OFFSET 0.029 -0 -0
										}
									}
								}
							}
							JOINT L2ProxPhalanx
							{
								OFFSET 0.0821037 0.001578 0.0219996
								CHANNELS 2 Yrotation Zrotation
								JOINT L2MidPhalanx
								{
									OFFSET 0.04 0 0
									CHANNELS 1 Zrotation
									JOINT L2DistPhalanx
									{
										OFFSET 0.028 0 0
										CHANNELS 1 Zrotation
										End Site
										{
											OFFSET 0.02 -0 -0
										}
									}
								}
							}
							JOINT L3ProxPhalanx
							{
								OFFSET 0.083 0 0
								CHANNELS 2 Yrotation Zrotation
								JOINT L3MidPhalanx
								{
									OFFSET 0.053 0 0
									CHANNELS 1 Zrotation
									JOINT L3DistPhalanx
									{
										OFFSET 0.03 0 0
										CHANNELS 1 Zrotation
										End Site
										{
											OFFSET 0.023 -0 -0
										}
									}
								}
							}
							JOINT L4ProxPhalanx
							{
								OFFSET 0.077274 -0.000761 -0.0207055
								CHANNELS 2 Yrotation Zrotation
								JOINT L4MidPhalanx
								{
									OFFSET 0.05 0 0
									CHANNELS 1 Zrotation
									JOINT L4DistPhalanx
									{
										OFFSET 0.03 0 0
										CHANNELS 1 Zrotation
										End Site
										{
											OFFSET 0.023 -0 -0
										}
									}
								}
							}
							JOINT L5ProxPhalanx
							{
								OFFSET 0.0675499 -0.001644 -0.039
								CHANNELS 2 Yrotation Zrotation
								JOINT L5MidPhalanx
								{
									OFFSET 0.04 0 0
									CHANNELS 1 Zrotation
									JOINT L5DistPhalanx
									{
										OFFSET 0.021 0 0
										CHANNELS 1 Zrotation
										End Site
										{
											OFFSET 0.022 -0 -0
										}
									}
								}
							}
						}
					}
				}
			}
			JOINT Right_Collar
			{
				OFFSET -0.02282 0.250342 0.017193
				CHANNELS 2 Yrotation Zrotation
				JOINT Right_Shoulder
				{
					OFFSET -0.15421 0 0
					CHANNELS 3 Xrotation Yrotation Zrotation
					JOINT Right_Forearm
					{
						OFFSET -0.265212 0 0
						CHANNELS 2 Yrotation Xrotation
						JOINT Right_Hand
						{
							OFFSET -0.27571 3e-006 0
							CHANNELS 2 Zrotation Yrotation
							JOINT R1ProxPhalanx
							{
								OFFSET -0.014142 0.001733 0.014142
								CHANNELS 3 Yrotation Zrotation Xrotation
								JOINT R1MidPhalanx
								{
									OFFSET -0.04 0 0
									CHANNELS 1 Zrotation
									JOINT R1DistPhalanx
									{
										OFFSET -0.035 0 0
										CHANNELS 1 Zrotation
										End Site
										{
											OFFSET -0.029 -0 -0
										}
									}
								}
							}
							JOINT R2ProxPhalanx
							{
								OFFSET -0.0821037 0.001578 0.0219996
								CHANNELS 2 Yrotation Zrotation
								JOINT R2MidPhalanx
								{
									OFFSET -0.04 0 0
									CHANNELS 1 Zrotation
									JOINT R2DistPhalanx
									{
										OFFSET -0.028 0 0
										CHANNELS 1 Zrotation
										End Site
										{
											OFFSET -0.02 -0 -0
										}
									}
								}
							}
							JOINT R3ProxPhalanx
							{
								OFFSET -0.083 0 0
								CHANNELS 2 Yrotation Zrotation
								JOINT R3MidPhalanx
								{
									OFFSET -0.053 0 0
									CHANNELS 1 Zrotation
									JOINT R3DistPhalanx
									{
										OFFSET -0.03 0 0
										CHANNELS 1 Zrotation
										End Site
										{
											OFFSET -0.023 -0 -0
										}
									}
								}
							}
							JOINT R4ProxPhalanx
							{
								OFFSET -0.077274 -0.000761 -0.0207055
								CHANNELS 2 Yrotation Zrotation
								JOINT R4MidPhalanx
								{
									OFFSET -0.05 0 0
									CHANNELS 1 Zrotation
									JOINT R4DistPhalanx
									{
										OFFSET -0.03 0 0
										CHANNELS 1 Zrotation
										End Site
										{
											OFFSET -0.023 -0 -0
										}
									}
								}
							}
							JOINT R5ProxPhalanx
							{
								OFFSET -0.0675499 -0.001644 -0.039
								CHANNELS 2 Yrotation Zrotation
								JOINT R5MidPhalanx
								{
									OFFSET -0.04 0 0
									CHANNELS 1 Zrotation
									JOINT R5DistPhalanx
									{
										OFFSET -0.021 0 0
										CHANNELS 1 Zrotation
										End Site
										{
											OFFSET -0.022 -0 -0
										}
									}
								}
							}
						}
					}
				}
			}
		}
	}
	JOINT Left_Thigh
	{
		OFFSET 0.1118 -0.1612 -0.0442
		CHANNELS 3 Xrotation Zrotation Yrotation
		JOINT Left_Shin
		{
			OFFSET 0 -0.477856 0
			CHANNELS 1 Xrotation
			JOINT Left_Foot
			{
				OFFSET 0 -0.431952 0
				CHANNELS 2 Xrotation Zrotation
				JOINT Left_Toe
				{
					OFFSET 0 -0.0442 0.119
					CHANNELS 1 Xrotation
					End Site
					{
						OFFSET -0 -0 0.07
					}
				}
			}
		}
	}
	JOINT Right_Thigh
	{
		OFFSET -0.1118 -0.1612 -0.0442
		CHANNELS 3 Xrotation Zrotation Yrotation
		JOINT Right_Shin
		{
			OFFSET 0 -0.477856 0
			CHANNELS 1 Xrotation
			JOINT Right_Foot
			{
				OFFSET 0 -0.431952 0
				CHANNELS 2 Xrotation Zrotation
				JOINT Right_Toe
				{
					OFFSET 0 -0.0442 0.119
					CHANNELS 1 Xrotation
					End Site
					{
						OFFSET -0 -0 0.07
					}
				}
			}
		}
	}
}
MOTION
Frames: 14
Frame Time: 0.009975
-0.0954406 -0.0602189 0.0510493 5.03143e-013 6.72892e-008 -5.10971e-006 0 -0 0 0 -0 0 0 -0 0 -0.713276 0.27398 -4.3419e-012 0.0143052 -3.93902 30.6025 -11.1972 -67.3563 -82.7284 0.012632 0.0165153 -0.0186445 -37.9386 -28.008 73.698 -26.2405 -28.4472 -13.118 -18.2167 -29.0248 -19.6359 0 -22.4358 -32.6146 -28.1246 8.63175 -30.7051 -32.2053 -23.7634 7.83088 -26.7354 -35.1526 -30.0193 1.73383 19.0052 -18.777 13.99 26.5327 48.8881 8.37855 -15.1555 4.14335 9.39051 50.6906 129.613 15.0519 14.6125 -8.37326 28.1834 6.30559 5.98127 -12.4524 45.8204 40.1902 54.2733 -33.6394 36.1548 20.745 79.1315 -52.2287 4.27992 87.8963 -84.2951 0.747548 -1.0303 -0.0134425 0.0240216 -0.771449 1.03039 0 0.758954 -1.03029 -0.0136476 2.83165e-006 -0.758834 1.03039 0 
-0.095501 -0.0602198 0.0511949 1.46154e-014 6.80916e-008 -5.10969e-006 0 -0 0 0 -0 0 0 -0 0 -0.713289 0.274148 -4.79122e-012 0.0143052 -3.93902 30.6025 -11.1972 -67.3563 -82.7284 0.012632 0.0165153 -0.0186445 -37.9386 -28.008 73.698 -26.2405 -28.4472 -13.118 -18.2167 -29.0248 -19.6359 0 -22.4358 -32.6146 -28.1246 8.63175 -30.7051 -32.2053 -23.7634 7.83088 -26.7354 -35.1526 -30.0193 1.71065 18.8015 -17.9998 13.2299 26.8873 50.4908 8.26654 -14.9529 4.08795 10.0767 50.1455 128.27 15.3208 14.9451 -7.85672 27.9439 6.85164 6.30945 -12.1531 45.2583 40.0081 53.6448 -33.0384 36.0238 21.0205 77.8007 -51.1616 4.81963 86.6286 -81.5476 0.756724 -1.02649 -0.0135572 0.0240216 -0.780624 1.02658 0 0.768129 -1.02649 -0.0137616 2.41484e-006 -0.768009 1.02658 0 
-0.0955637 -0.0602207 0.0513466 -5.48305e-013 6.893e-008 -5.10968e-006 0 -0 0 0 -0 0 0 -0 0 -0.713302 0.274323 -5.2322e-012 0.0143052 -3.93902 30.6025 -11.1972 -67.3563 -82.7284 0.012632 0.0165153 -0.0186445 -37.9386 -28.008 73.698 -26.2405 -28.4472 -13.118 -18.2167 -29.0248 -19.6359 0 -22.4358 -32.6146 -28.1246 8.63175 -30.7051 -32.2053 -23.7634 7.83088 -26.7354 -35.1526 -30.0193 1.68662 18.5905 -17.1929 12.4712 27.261 52.0887 8.15042 -14.7429 4.03053 10.7629 49.6003 126.926 15.5897 15.2776 -7.34019 27.7043 7.39768 6.63764 -11.8538 44.6963 39.8261 53.0163 -32.4373 35.8928 21.2959 76.47 -50.0945 5.35935 85.3609 -78.8001 0.766279 -1.02254 -0.0136757 0.0240216 -0.790178 1.02264 0 0.777684 -1.02254 -0.0138792 2.83165e-006 -0.777563 1.02264 0 
-0.0956286 -0.0602217 0.0515037 -4.60801e-013 6.98003e-008 -5.10966e-006 0 -0 0 0 -0 0 0 -0 0 -0.713316 0.274504 -5.66572e-012 0.0143052 -3.93902 30.6025 -11.1972 -67.3563 -82.7284 0.012632 0.0165153 -0.0186445 -37.9386 -28.008 73.698 -26.2405 -28.4472 -13.118 -18.2167 -29.0248 -19.6359 0 -22.4358 -32.6146 -28.1246 8.63175 -30.7051 -32.2053 -23.7634 7.83088 -26.7354 -35.1526 -30.0193 1.6618 18.3729 -16.3582 11.7184 27.6541 53.6756 8.0305 -14.526 3.97123 11.4491 49.0552 125.582 15.8586 15.6101 -6.82365 27.4648 7.94373 6.96582 -11.5545 44.1342 39.644 52.3878 -31.8363 35.7618 21.5714 75.1392 -49.0275 5.89906 84.0932 -76.0526 0.776171 -1.01846 -0.0137969 0.0240216 -0.80007 1.01856 0 0.787577 -1.01846 -0.0139996 2.41484e-006 -0.787455 1.01856 0 
-0.0956957 -0.0602227 0.0516656 -6.90656e-013 7.06992e-008 -5.10964e-006 0 -0 0 0 -0 0 0 -0 0 -0.71333 0.274693 -6.09175e-012 0.0143052 -3.93902 30.6025 -11.1972 -67.3563 -82.7284 0.012632 0.0165153 -0.0186445 -37.9386 -28.008 73.698 -26.2405 -28.4472 -13.118 -18.2167 -29.0248 -19.6359 0 -22.4358 -32.6146 -28.1246 8.63175 -30.7051 -32.2053 -23.7634 7.83088 -26.7354 -35.1526 -30.0193 1.63625 18.1489 -15.4975 10.9753 28.0671 55.2464 7.907 -14.3026 3.91016 12.1352 48.5101 124.238 16.1275 15.9426 -6.30712 27.2253 8.48978 7.29401 -11.2552 43.5722 39.4619 51.7594 -31.2352 35.6308 21.8468 73.8085 -47.9604 6.43877 82.8256 -73.3051 0.786367 -1.01423 -0.0139201 0.0240216 -0.810266 1.01433 0 0.797773 -1.01423 -0.014122 1.45122e-006 -0.797649 1.01433 0 
-0.095765 -0.0602238 0.0518318 -6.47975e-013 7.16238e-008 -5.10962e-006 0 -0 0 0 -0 0 0 -0 0 -0.713345 0.274888 -6.5108e-012 0.0143052 -3.93902 30.6025 -11.1972 -67.3563 -82.7284 0.012632 0.0165153 -0.0186445 -37.9386 -28.008 73.698 -26.2405 -28.4472 -13.118 -18.2167 -29.0248 -19.6359 0 -22.4358 -32.6146 -28.1246 8.63175 -30.7051 -32.2053 -23.7634 7.83088 -26.7354 -35.1526 -30.0193 1.61 17.9191 -14.612 10.245 28.5002 56.7971 7.78018 -14.0732 3.84744 12.8214 47.965 122.894 16.3964 16.2751 -5.79058 26.9857 9.03583 7.62219 -10.9559 43.0101 39.2798 51.1309 -30.6342 35.4998 22.1223 72.4777 -46.8933 6.97848 81.5579 -70.5576 0.796835 -1.00986 -0.0140447 0.0240216 -0.820733 1.00997 0 0.808242 -1.00986 -0.0142458 0 -0.808116 1.00997 0 
-0.0958366 -0.060225 0.0520018 -5.90683e-013 7.25714e-008 -5.1096e-006 0 -0 0 0 -0 0 0 -0 0 -0.71336 0.275089 -6.9224e-012 0.0143052 -3.93902 30.6025 -11.1972 -67.3563 -82.7284 0.012632 0.0165153 -0.0186445 -37.9386 -28.008 73.698 -26.2405 -28.4472 -13.118 -18.2167 -29.0248 -19.6359 0 -22.4358 -32.6146 -28.1246 8.63175 -30.7051 -32.2053 -23.7634 7.83088 -26.7354 -35.1526 -30.0193 1.58311 17.6837 -13.7031 9.53046 28.9537 58.3242 7.65023 -13.8381 3.78318 13.5076 47.4199 121.55 16.6654 16.6076 -5.27404 26.7462 9.58188 7.95037 -10.6567 42.4481 39.0978 50.5024 -30.0331 35.3689 22.3977 71.147 -45.8262 7.51819 80.2902 -67.8101 0.807548 -1.00536 -0.01417 0.0240216 -0.831445 1.00546 0 0.818954 -1.00535 -0.0143702 8.23892e-007 -0.818829 1.00546 0 
-0.0959103 -0.0602262 0.0521754 -8.24411e-013 7.35397e-008 -5.10958e-006 0 -0 0 0 -0 0 0 -0 0 -0.713375 0.275298 -7.32615e-012 0.0143052 -3.93902 30.6025 -11.1972 -67.3563 -82.7284 0.012632 0.0165153 -0.0186445 -37.9386 -28.008 73.698 -26.2405 -28.4472 -13.118 -18.2167 -29.0248 -19.6359 0 -22.4358 -32.6146 -28.1246 8.63175 -30.7051 -32.2053 -23.7634 7.83088 -26.7354 -35.1526 -30.0193 1.55561 17.4431 -12.7717 8.83443 29.4279 59.8249 7.51736 -13.5978 3.71748 14.1938 46.8747 120.206 16.9343 16.9401 -4.75751 26.5066 10.1279 8.27856 -10.3574 41.8861 38.9157 49.8739 -29.4321 35.2379 22.6731 69.8162 -44.7591 8.0579 79.0225 -65.0626 0.818479 -1.00071 -0.0142955 0.0240216 -0.842375 1.00082 0 0.829885 -1.00071 -0.0144947 1.70755e-006 -0.829761 1.00082 0 
-0.0959862 -0.0602275 0.0523521 -3.40873e-013 7.45264e-008 -5.10956e-006 0 -0 0 0 -0 0 0 -0 0 -0.713391 0.275513 -7.7221e-012 0.0143052 -3.93902 30.6025 -11.1972 -67.3563 -82.7284 0.012632 0.0165153 -0.0186445 -37.9386 -28.008 73.698 -26.2405 -28.4472 -13.118 -18.2167 -29.0248 -19.6359 0 -22.4358 -32.6146 -28.1246 8.63175 -30.7051 -32.2053 -23.7634 7.83088 -26.7354 -35.1526 -30.0193 1.52755 17.1977 -11.819 8.15905 29.9226 61.2969 7.38176 -13.3525 3.65041 14.88 46.3296 118.862 17.2032 17.2726 -4.24097 26.2671 10.674 8.60674 -10.0581 41.324 38.7336 49.2455 -28.831 35.1069 22.9486 68.4855 -43.692 8.59761 77.7548 -62.315 0.829607 -0.995931 -0.0144207 0.0240216 -0.853503 0.996041 0 0.841013 -0.995929 -0.014619 1.26175e-006 -0.840888 0.996041 0 
-0.0960642 -0.0602288 0.0525316 1.03466e-012 7.553e-008 -5.10953e-006 0 -0 0 0 -0 0 0 -0 0 -0.713408 0.275734 -8.10975e-012 0.0143052 -3.93902 30.6025 -11.1972 -67.3563 -82.7284 0.012632 0.0165153 -0.0186445 -37.9386 -28.008 73.698 -26.2405 -28.4472 -13.118 -18.2167 -29.0248 -19.6359 0 -22.4358 -32.6146 -28.1246 8.63175 -30.7051 -32.2053 -23.7634 7.83088 -26.7354 -35.1526 -30.0193 1.49896 16.9478 -10.8457 7.5064 30.438 62.738 7.24358 -13.1025 3.58208 15.5662 45.7845 117.518 17.4721 17.6051 -3.72444 26.0275 11.22 8.93493 -9.75879 40.762 38.5515 48.617 -28.23 34.9759 23.224 67.1547 -42.6249 9.13732 76.4872 -59.5675 0.840912 -0.991017 -0.0145451 0.0240216 -0.864808 0.991129 0 0.852319 -0.991014 -0.0147424 8.11085e-007 -0.852192 0.991129 0 
-0.0961444 -0.0602301 0.0527136 -1.00949e-012 7.65483e-008 -5.10951e-006 0 -0 0 0 -0 0 0 -0 0 -0.713424 0.275962 -8.48848e-012 0.0143052 -3.93902 30.6025 -11.1972 -67.3563 -82.7284 0.012632 0.0165153 -0.0186445 -37.9386 -28.008 73.698 -26.2405 -28.4472 -13.118 -18.2167 -29.0248 -19.6359 0 -22.4358 -32.6146 -28.1246 8.63175 -30.7051 -32.2053 -23.7634 7.83088 -26.7354 -35.1526 -30.0193 1.46987 16.6936 -9.853 6.87854 30.9741 64.1465 7.103 -12.8483 3.51256 16.2524 45.2394 116.174 17.741 17.9377 -3.2079 25.788 11.7661 9.26311 -9.4595 40.1999 38.3695 47.9885 -27.6289 34.8449 23.4995 65.8239 -41.5578 9.67703 75.2195 -56.82 0.852375 -0.98597 -0.0146683 0.0240216 -0.876271 0.986085 0 0.863782 -0.985967 -0.0148646 1.70755e-006 -0.863656 0.986085 0 
-0.0962265 -0.0602315 0.0528978 -7.23795e-013 7.758e-008 -5.10949e-006 0 -0 0 0 -0 0 0 -0 0 -0.713441 0.276195 -8.85811e-012 0.0143052 -3.93902 30.6025 -11.1972 -67.3563 -82.7284 0.012632 0.0165153 -0.0186445 -37.9386 -28.008 73.698 -26.2405 -28.4472 -13.118 -18.2167 -29.0248 -19.6359 0 -22.4358 -32.6146 -28.1246 8.63175 -30.7051 -32.2053 -23.7634 7.83088 -26.7354 -35.1526 -30.0193 1.44031 16.4354 -8.84166 6.27713 31.5307 65.521 6.96016 -12.5899 3.44193 16.9386 44.6942 114.83 18.0099 18.2702 -2.69137 25.5484 12.3121 9.5913 -9.16021 39.6379 38.1874 47.36 -27.0279 34.714 23.7749 64.4932 -40.4907 10.2167 73.9518 -54.0725 0.863979 -0.980794 -0.01479 0.0240216 -0.887874 0.98091 0 0.875386 -0.980791 -0.0149853 1.70755e-006 -0.875259 0.980911 0 
-0.0963108 -0.0602329 0.053084 -8.14891e-013 7.86236e-008 -5.10946e-006 0 -0 0 0 -0 0 0 -0 0 -0.713458 0.276435 -9.21819e-012 0.0143052 -3.93902 30.6025 -11.1972 -67.3563 -82.7284 0.012632 0.0165153 -0.0186445 -37.9386 -28.008 73.698 -26.2405 -28.4472 -13.118 -18.2167 -29.0248 -19.6359 0 -22.4358 -32.6146 -28.1246 8.63175 -30.7051 -32.2053 -23.7634 7.83088 -26.7354 -35.1526 -30.0193 1.41031 16.1734 -7.81268 5.70384 32.1077 66.8599 6.81521 -12.3277 3.37025 17.6248 44.1491 113.486 18.2789 18.6027 -2.17483 25.3089 12.8582 9.91948 -8.86092 39.0759 38.0053 46.7316 -26.4268 34.583 24.0504 63.1624 -39.4237 10.7565 72.6841 -51.325 0.875708 -0.97549 -0.0149098 0.0240216 -0.899602 0.975609 0 0.887114 -0.975487 -0.0151039 1.70755e-006 -0.886988 0.975609 0 
-0.096397 -0.0602344 0.053272 4.89581e-013 7.96775e-008 -5.10944e-006 0 -0 0 0 -0 0 0 -0 0 -0.713476 0.276681 -9.56766e-012 0.0143052 -3.93902 30.6025 -11.1972 -67.3563 -82.7284 0.012632 0.0165153 -0.0186445 -37.9386 -28.008 73.698 -26.2405 -28.4472 -13.118 -18.2167 -29.0248 -19.6359 0 -22.4358 -32.6146 -28.1246 8.63175 -30.7051 -32.2053 -23.7634 7.83088 -26.7354 -35.1526 -30.0193 1.37991 15.9079 -6.76706 5.16023 32.7049 68.1621 6.66828 -12.0619 3.29759 18.311 43.604 112.142 18.5478 18.9352 -1.65829 25.0693 13.4042 10.2477 -8.56163 38.5138 37.8232 46.1031 -25.8258 34.452 24.3258 61.8317 -38.3566 11.2962 71.4165 -48.5775 0.887545 -0.970061 -0.0150272 0.0240216 -0.91144 0.970182 0 0.898951 -0.970058 -0.0152203 2.41484e-006 -0.898825 0.970182 0 
